<?xml version="1.0" encoding="UTF-8" standalone="no"?>
<svg
   xmlns:dc="http://purl.org/dc/elements/1.1/"
   xmlns:cc="http://creativecommons.org/ns#"
   xmlns:rdf="http://www.w3.org/1999/02/22-rdf-syntax-ns#"
   xmlns:svg="http://www.w3.org/2000/svg"
   xmlns="http://www.w3.org/2000/svg"
   xmlns:sodipodi="http://sodipodi.sourceforge.net/DTD/sodipodi-0.dtd"
   xmlns:inkscape="http://www.inkscape.org/namespaces/inkscape"
   version="1.1"
   id="svg4270"
   viewBox="0 0 352.30875 352.5813"
   height="352.5813"
   width="352.30875"
   sodipodi:docname="logo.svg"
   inkscape:version="1.0.2-2 (e86c870879, 2021-01-15)">
  <sodipodi:namedview
     pagecolor="#ffffff"
     bordercolor="#666666"
     borderopacity="1"
     objecttolerance="10"
     gridtolerance="10"
     guidetolerance="10"
     inkscape:pageopacity="0"
     inkscape:pageshadow="2"
     inkscape:window-width="2560"
     inkscape:window-height="1417"
     id="namedview32"
     showgrid="false"
     fit-margin-top="0"
     fit-margin-left="0"
     fit-margin-right="0"
     fit-margin-bottom="0"
     inkscape:zoom="1.6886429"
     inkscape:cx="134.84459"
     inkscape:cy="161.38111"
     inkscape:window-x="-8"
     inkscape:window-y="-8"
     inkscape:window-maximized="1"
     inkscape:current-layer="g4618" />
  <defs
     id="defs4272" />
  <metadata
     id="metadata4275">
    <rdf:RDF>
      <cc:Work
         rdf:about="">
        <dc:format>image/svg+xml</dc:format>
        <dc:type
           rdf:resource="http://purl.org/dc/dcmitype/StillImage" />
        <dc:title></dc:title>
      </cc:Work>
    </rdf:RDF>
  </metadata>
  <g
     transform="translate(-160.22642,-288.65901)"
     id="layer1">
    <g
       transform="matrix(7.1564714,0,0,-7.1564714,342.91525,367.02953)"
       id="g4618">
      <path
         id="path4620"
         style="fill:#23704a;fill-opacity:1;fill-rule:nonzero;stroke:none"
         d="m 0,0 c 0,-0.544 0.334,-0.986 0.745,-0.986 h 22.141 c 0.412,0 0.746,0.442 0.746,0.986 v 9.965 c 0,0.547 -0.334,0.986 -0.746,0.986 H 0.745 C 0.334,10.951 0,10.512 0,9.965 Z" />
    </g>
    <g
       transform="matrix(7.1564714,0,0,-7.1564714,161.91018,367.02953)"
       id="g4622">
      <path
         id="path4624"
         style="fill:#373535;fill-opacity:1;fill-rule:nonzero;stroke:none"
         d="m 0,0 c 0,-0.544 0.334,-0.986 0.746,-0.986 h 22.143 c 0.409,0 0.742,0.442 0.742,0.986 v 9.965 c 0,0.547 -0.333,0.986 -0.742,0.986 H 0.746 C 0.334,10.951 0,10.512 0,9.965 Z" />
    </g>
    <g
       transform="matrix(7.1564714,0,0,-7.1564714,342.91525,468.75087)"
       id="g4626">
      <path
         id="path4628"
         style="fill:#373535;fill-opacity:1;fill-rule:nonzero;stroke:none"
         d="m 0,0 c 0,-0.541 0.334,-0.983 0.745,-0.983 h 22.141 c 0.412,0 0.746,0.442 0.746,0.983 v 9.966 c 0,0.545 -0.334,0.989 -0.746,0.989 H 0.745 C 0.334,10.955 0,10.511 0,9.966 Z" />
    </g>
    <g
       transform="matrix(7.1564714,0,0,-7.1564714,161.91018,468.75087)"
       id="g4630"
       style="fill:#23704a;fill-opacity:1">
      <path
         id="path4632"
         style="fill:#23704a;fill-opacity:1;fill-rule:nonzero;stroke:none"
         d="m 0,0 c 0,-0.541 0.334,-0.983 0.746,-0.983 h 22.143 c 0.409,0 0.742,0.442 0.742,0.983 v 9.966 c 0,0.545 -0.333,0.989 -0.742,0.989 H 0.746 C 0.334,10.955 0,10.511 0,9.966 Z" />
    </g>
    <g
       transform="matrix(7.1564714,0,0,-7.1564714,342.91525,571.09414)"
       id="g4634">
      <path
         id="path4636"
         style="fill:#373535;fill-opacity:1;fill-rule:nonzero;stroke:none"
         d="m 0,0 c 0,-0.547 0.334,-0.985 0.745,-0.985 h 22.141 c 0.412,0 0.746,0.438 0.746,0.985 v 9.966 c 0,0.544 -0.334,0.982 -0.746,0.982 H 0.745 C 0.334,10.948 0,10.51 0,9.966 Z" />
    </g>
    <g
       transform="matrix(7.1564714,0,0,-7.1564714,161.91018,571.09414)"
       id="g4638"
       style="fill:#23704a;fill-opacity:1">
      <path
         id="path4640"
         style="fill:#23704a;fill-opacity:1;fill-rule:nonzero;stroke:none"
         d="m 0,0 c 0,-0.547 0.334,-0.985 0.746,-0.985 h 22.143 c 0.409,0 0.742,0.438 0.742,0.985 v 9.966 c 0,0.544 -0.333,0.982 -0.742,0.982 H 0.746 C 0.334,10.948 0,10.51 0,9.966 Z" />
    </g>
    <path
       id="path4582"
       style="fill:#23704a;fill-opacity:1;fill-rule:nonzero;stroke:none"
       d="m 160.22642,589.47907 h 10.85375 v 51.6875 h -10.85375 z" />
    <g
       transform="matrix(1.25,0,0,-1.25,217.96692,641.1657)"
       id="g4592"
       style="fill:#23704a;fill-opacity:1">
      <path
         id="path4594"
         style="fill:#23704a;fill-opacity:1;fill-rule:nonzero;stroke:none"
         d="M 0,0 H -8.506 V 24.396 H -24.395 V 0 h -8.506 v 24.396 c 0,5.139 3.366,8.507 8.506,8.507 3.544,0 7.147,0.118 10.75,0.118 1.891,0 3.84,-0.06 5.73,-0.178 C 1.418,32.135 0.119,23.155 0.119,16.361 0.119,10.928 0,5.435 0,0" />
    </g>
    <g
       transform="matrix(1.25,0,0,-1.25,241.96967,610.67007)"
       id="g4596"
       style="fill:#23704a;fill-opacity:1">
      <path
         id="path4598"
         style="fill:#23704a;fill-opacity:1;fill-rule:nonzero;stroke:none"
         d="M 0,0 V -24.396 H -8.506 V 0 h -8.092 v 8.506 h 8.092 v 8.979 H 0 V 8.506 H 8.151 V 0 Z" />
    </g>
    <path
       id="path4600"
       style="fill:#23704a;fill-opacity:1;fill-rule:nonzero;stroke:none"
       d="m 283.91267,610.67032 h -19.86125 v 4.43 h 19.86125 z m -19.86125,30.57 c -11.0025,0 -10.78125,-9.01125 -10.78125,-17.2075 0,-4.42875 0.1475,-8.8575 0.1475,-13.28875 0,-6.42375 4.20875,-10.7075 10.63375,-10.7075 4.42875,0 8.93375,-0.1475 13.4375,-0.1475 9.6725,0 17.055,0.1475 17.055,12.185 0,7.38125 -1.91875,13.58375 -10.63125,13.58375 h -19.86125 v 4.8725 h 30.4925 v 10.71 z" />
    <g
       transform="matrix(1.25,0,0,-1.25,341.51129,620.26969)"
       id="g4602"
       style="fill:#23704a;fill-opacity:1">
      <path
         id="path4604"
         style="fill:#23704a;fill-opacity:1;fill-rule:nonzero;stroke:none"
         d="m 0,0 h -8.507 v 7.68 h -15.889 v -24.397 h -8.506 v 32.903 h 24.395 c 7.088,0 8.624,-4.903 8.565,-10.929 z" />
    </g>
    <g
       transform="matrix(1.25,0,0,-1.25,391.42942,641.1657)"
       id="g4606">
      <path
         id="path4608"
         style="fill:#373535;fill-opacity:1;fill-rule:nonzero;stroke:none"
         d="M 0,0 V 31.722 L -7.267,0 h -13.23 l -7.265,31.722 V 0 h -8.684 v 41.35 h 15.063 L -13.88,8.685 -6.379,41.35 H 8.683 V 0 Z" />
    </g>
    <path
       id="path4610"
       style="fill:#373535;fill-opacity:1;fill-rule:nonzero;stroke:none"
       d="m 408.12517,601.44157 h 10.6325 v 39.725 h -10.6325 z m 0,-11.8875 h 10.6325 v 10.48375 h -10.6325 z" />
    <g
       transform="matrix(1.25,0,0,-1.25,465.5713,641.1657)"
       id="g4612">
      <path
         id="path4614"
         style="fill:#373535;fill-opacity:1;fill-rule:nonzero;stroke:none"
         d="m 0,0 h -8.506 v 24.396 h -15.89 V 0 h -8.505 v 24.396 c 0,5.139 3.367,8.507 8.505,8.507 3.545,0 7.148,0.118 10.75,0.118 1.891,0 3.84,-0.06 5.73,-0.178 C 1.418,32.135 0.118,23.155 0.118,16.361 0.118,10.928 0,5.435 0,0" />
    </g>
    <path
       id="path4616"
       style="fill:#373535;fill-opacity:1;fill-rule:nonzero;stroke:none"
       d="m 501.90392,610.67032 h -19.86125 v 4.43 h 19.86125 z m -19.86,30.57 c -11.00125,0 -10.78125,-9.01125 -10.78125,-17.2075 0,-4.42875 0.1475,-8.8575 0.1475,-13.28875 0,-6.42375 4.20875,-10.7075 10.63375,-10.7075 4.4275,0 8.9325,-0.1475 13.43875,-0.1475 9.67,0 17.0525,0.1475 17.0525,12.185 0,7.38125 -1.91875,13.58375 -10.63125,13.58375 h -19.86 v 4.8725 h 30.49125 v 10.71 z" />
  </g>
</svg>
